<?xml version="1.0" standalone="no"?><!DOCTYPE svg PUBLIC "-//W3C//DTD SVG 1.1//EN" "http://www.w3.org/Graphics/SVG/1.1/DTD/svg11.dtd"><svg t="1595253387709" class="icon" viewBox="0 0 1024 1024" version="1.1" xmlns="http://www.w3.org/2000/svg" p-id="4910" xmlns:xlink="http://www.w3.org/1999/xlink" width="200" height="200"><defs><style type="text/css"></style></defs><path d="M536.576 632.32c-65.536 0-118.784-28.672-144.896-77.824H368.64c-28.16 47.616-81.408 77.824-138.752 77.824-88.064 0-159.744-68.608-159.744-153.6 0-2.56 0-7.168 57.344-272.896 1.024-55.296 48.128-99.328 105.472-99.328h576.512c57.344 0 104.448 44.544 105.472 99.328 59.392 265.728 59.392 269.824 59.392 272.896 0 87.552-65.024 153.088-151.04 153.088-54.272 0-97.792-26.624-125.952-77.824h-22.016c-28.16 48.128-81.408 78.336-138.752 78.336z m-193.024-118.784h74.752l5.12 12.8c16.896 40.96 59.392 65.536 113.152 65.536 46.592 0 89.088-26.112 108.032-66.56l5.632-11.776h72.704l5.632 11.776c20.992 44.544 52.224 66.048 95.232 66.048 63.488 0 109.056-46.592 110.08-110.592-3.072-16.896-36.352-167.936-58.88-267.264l-0.512-2.048v-2.048c0-33.792-29.184-60.928-64.512-60.928H232.96c-35.84 0-64.512 27.136-64.512 60.928v2.048l-0.512 2.048c-21.504 99.84-53.76 250.88-56.832 267.776 1.024 61.44 53.76 111.104 118.784 111.104 46.592 0 89.088-26.112 108.032-66.56l5.632-12.288z m589.824-34.304z m-822.272 0zM831.488 930.304H212.992c-52.736 0-93.696-40.96-93.696-92.672v-165.888c0-11.264 9.216-20.48 20.48-20.48s20.48 9.216 20.48 20.48v165.888c0 29.696 22.528 51.712 52.736 51.712h618.496c29.184 0 52.736-20.992 52.736-46.592v-168.448c0-11.264 9.216-20.48 20.48-20.48s20.48 9.216 20.48 20.48v168.448c0 48.128-41.984 87.552-93.696 87.552z" fill="#ffffff" p-id="4911"></path><path d="M779.776 391.68H288.768c-11.264 0-20.48-9.216-20.48-20.48s9.216-20.48 20.48-20.48h491.008c11.264 0 20.48 9.216 20.48 20.48s-9.216 20.48-20.48 20.48z" fill="#ffffff" p-id="4912"></path></svg>