<?xml version="1.0" standalone="no"?><!DOCTYPE svg PUBLIC "-//W3C//DTD SVG 1.1//EN" "http://www.w3.org/Graphics/SVG/1.1/DTD/svg11.dtd"><svg t="1583757393479" class="icon" viewBox="0 0 1024 1024" version="1.1" xmlns="http://www.w3.org/2000/svg" p-id="4368" xmlns:xlink="http://www.w3.org/1999/xlink" width="128" height="128"><defs><style type="text/css"></style></defs><path d="M502.784 374.272c24.064 0 39.936-15.872 39.936-39.936 0-24.064-15.872-39.424-39.936-39.424-24.064 0-48.128 15.36-48.128 39.424 0.512 23.552 24.576 39.936 48.128 39.936zM280.064 294.4c-24.064 0-48.128 15.36-48.128 39.424S256 373.76 280.064 373.76c23.552 0 39.936-15.872 39.936-39.936 0-23.552-15.872-39.424-39.936-39.424z m698.88 334.336c0-125.952-116.736-232.96-260.096-244.224 0-1.536 0.512-3.072 0-4.608-28.672-134.144-173.056-235.008-335.36-235.008-183.296 0-332.8 128-332.8 285.184 0 84.48 43.008 160.256 124.928 220.16l-28.672 85.504c-2.048 5.632 0 11.776 4.096 15.36 2.56 2.56 6.144 3.584 9.728 3.584 2.048 0 4.608-0.512 6.656-1.536l107.008-53.248 13.312 2.56c32.768 6.656 61.44 12.8 96.256 12.8 10.24 0 38.4-3.584 40.96-6.656 38.4 96.256 144.896 165.888 269.824 165.888 32.256 0 64.512-7.68 93.696-14.848l82.432 45.056c2.048 1.024 4.608 2.048 7.168 2.048 3.072 0 6.656-1.024 9.216-3.072 4.608-3.584 6.656-9.728 4.608-15.36l-20.992-70.144c69.632-56.32 108.032-122.88 108.032-189.44z m-570.368 40.96c-8.704 0.512-15.872 1.024-24.576 1.024-30.208 0-55.296-5.12-84.992-11.264l-16.896-3.584c-3.072-0.512-6.144 0-8.704 1.024l-74.752 37.376 19.456-58.368c2.048-5.632 0-11.776-5.12-15.36C137.216 568.32 98.816 504.32 98.816 430.592c0-132.608 127.488-240.128 284.672-240.128 138.752 0 261.632 82.432 287.232 194.56-145.408 2.048-263.168 112.64-263.168 231.936 0 18.432 0.512 35.84 5.632 53.248-1.536-0.512-1.024-0.512-2.56-0.512h-2.048z m424.448 120.32c-4.608 3.584-6.656 9.216-4.608 14.848l12.8 42.496-52.736-28.672c-2.048-1.024-4.096-1.536-6.656-1.536-1.024 0-2.048 0-3.072 0.512-28.16 7.168-57.344 14.336-86.016 14.336-132.096 0-239.616-91.136-239.616-202.752s107.52-202.752 239.616-202.752c129.536 0 239.616 92.672 239.616 202.752-0.512 55.808-35.84 113.152-99.328 160.768z m-226.304-264.704c-15.872 0-31.744 15.872-31.744 31.744s15.872 31.744 31.744 31.744c24.064 0 39.936-15.872 39.936-31.744-0.512-15.872-16.384-31.744-39.936-31.744z m174.592 0c-15.872 0-31.744 15.872-31.744 31.744s15.872 31.744 31.744 31.744c24.064 0 39.936-15.872 39.936-31.744s-15.872-31.744-39.936-31.744z" p-id="4369"></path></svg>