<?xml version="1.0" standalone="no"?><!DOCTYPE svg PUBLIC "-//W3C//DTD SVG 1.1//EN" "http://www.w3.org/Graphics/SVG/1.1/DTD/svg11.dtd"><svg t="1581516034451" class="icon" viewBox="0 0 1024 1024" version="1.1" xmlns="http://www.w3.org/2000/svg" p-id="1939" xmlns:xlink="http://www.w3.org/1999/xlink" width="128" height="128"><defs><style type="text/css"></style></defs><path d="M511.317334 1023.999716C252.984961 1023.51616 34.759244 833.535768 0.512142 579.327839c-1.820444-13.39733 3.726221-26.73777 14.506663-34.986657 10.780441-8.220442 25.173326-10.126219 37.745767-4.977776 12.572441 5.148443 21.418661 16.583107 23.239105 29.951991 28.842659 217.230162 215.381274 379.61945 436.053212 379.619451 220.728828 0 407.267442-162.389288 436.110101-379.619451a38.030212 38.030212 0 0 1 42.780433-32.483546 37.831101 37.831101 0 0 1 32.711102 42.495988C989.32609 834.104657 770.275484 1024.255715 511.317334 1023.999716z m469.560758-562.090511a37.432878 37.432878 0 0 1-36.977768-30.719991C904.817669 224.511938 723.057719 74.808868 511.317334 74.808868S117.816998 224.540382 78.791231 431.160769c-4.209777 19.911106-23.608882 32.853324-43.747543 29.183992a37.489767 37.489767 0 0 1-30.492436-42.666655C50.204573 175.502173 263.168069 0 511.317334 0c248.177709 0 461.141205 175.502173 506.794525 417.678106a37.262212 37.262212 0 0 1-5.745776 28.387548c-5.688887 8.305775-14.506663 14.023107-24.462215 15.843551a33.706657 33.706657 0 0 1-7.025776 0z m0 0c-20.849772 0-37.745767-16.782218-37.745767-37.489767V224.568827c0-20.70755 16.895995-37.489767 37.745767-37.489768s37.745767 16.782218 37.745767 37.489768v199.850611c0 20.70755-16.895995 37.489767-37.745767 37.489767zM37.74591 811.661997c-20.849772 0-37.745767-16.782218-37.745768-37.489768v-199.850611c0-20.70755 16.895995-37.489767 37.745768-37.489767s37.745767 16.782218 37.745767 37.489767v199.850611c0 20.70755-16.895995 37.489767-37.745767 37.489768z" p-id="1940"></path></svg>