<?xml version="1.0" standalone="no"?><!DOCTYPE svg PUBLIC "-//W3C//DTD SVG 1.1//EN" "http://www.w3.org/Graphics/SVG/1.1/DTD/svg11.dtd"><svg t="1595987325077" class="icon" viewBox="0 0 1024 1024" version="1.1" xmlns="http://www.w3.org/2000/svg" p-id="1176" xmlns:xlink="http://www.w3.org/1999/xlink" width="200" height="200"><defs><style type="text/css"></style></defs><path d="M897.934222 275.114667h-122.424889a167.025778 167.025778 0 0 0 21.162667-91.022223 107.406222 107.406222 0 0 0-35.726222-78.961777c-48.696889-38.001778-138.126222-17.066667-204.8 48.014222a232.789333 232.789333 0 0 0-45.511111 63.260444 232.561778 232.561778 0 0 0-45.511111-63.260444c-65.536-65.080889-154.965333-86.243556-204.8-48.014222A107.406222 107.406222 0 0 0 227.555556 183.864889a167.025778 167.025778 0 0 0 21.162666 91.022222H126.065778a70.997333 70.997333 0 0 0-70.997334 70.997333v70.542223a70.997333 70.997333 0 0 0 70.997334 70.997333H136.533333v335.644444a118.328889 118.328889 0 0 0 118.101334 118.101334h513.592889A118.328889 118.328889 0 0 0 887.466667 823.068444V487.424h11.605333a70.997333 70.997333 0 0 0 70.997333-70.997333v-70.542223a70.997333 70.997333 0 0 0-72.135111-70.769777zM591.644444 186.595556c56.206222-55.751111 119.239111-61.667556 141.312-45.511112a63.032889 63.032889 0 0 1 17.749334 45.511112 124.017778 124.017778 0 0 1-31.175111 88.291555h-179.313778A194.104889 194.104889 0 0 1 591.644444 186.595556z m-316.074666 0a63.032889 63.032889 0 0 1 17.749333-45.511112c22.755556-17.294222 85.105778-11.377778 141.312 45.511112a193.649778 193.649778 0 0 1 50.289778 88.519111h-179.313778a124.017778 124.017778 0 0 1-31.175111-88.291556zM102.4 416.426667v-70.542223a22.755556 22.755556 0 0 1 22.755556-22.755555h363.178666v117.873778H126.065778A22.755556 22.755556 0 0 1 102.4 416.426667z m82.602667 406.641777V487.424h303.331555v388.892444a22.755556 22.755556 0 0 0 8.192 17.521778H255.772444a70.997333 70.997333 0 0 1-70.769777-70.769778z m654.222222 0a70.997333 70.997333 0 0 1-70.997333 70.997334H527.246222a22.755556 22.755556 0 0 0 8.192-17.521778v-389.12h303.559111v335.644444zM921.6 416.426667a22.755556 22.755556 0 0 1-22.755556 22.755555H535.665778v-116.736h362.268444a22.755556 22.755556 0 0 1 22.755556 22.755556v70.542222z" p-id="1177"></path></svg>