<?xml version="1.0" standalone="no"?><!DOCTYPE svg PUBLIC "-//W3C//DTD SVG 1.1//EN" "http://www.w3.org/Graphics/SVG/1.1/DTD/svg11.dtd"><svg t="1600763110287" class="icon" viewBox="0 0 1260 1024" version="1.1" xmlns="http://www.w3.org/2000/svg" p-id="5390" xmlns:xlink="http://www.w3.org/1999/xlink" width="246.09375" height="200"><defs><style type="text/css"></style></defs><path d="M1087.094154 39.384615a140.996923 140.996923 0 0 1 141.390769 140.603077v664.024616c0 77.430154-63.172923 140.603077-140.681846 140.603077H163.918769a140.839385 140.839385 0 0 1-140.603077-140.603077v-664.024616C23.315692 102.557538 86.409846 39.384615 163.84 39.384615z m-108.307692 217.403077l-341.07077 310.744616L295.936 256.787692a44.347077 44.347077 0 0 0-61.676308 8.664616 44.347077 44.347077 0 0 0 8.664616 61.676307l368.246154 330.83077c0.787692 0.708923 2.126769 1.417846 2.835692 2.126769a5.513846 5.513846 0 0 0 2.914461 1.417846h0.708923l2.835693 1.417846h0.787692c0.708923 0 1.417846 0.787692 2.126769 0.787692 0.708923 0 0.708923 0 1.417846 0.630154 0.787692 0 1.417846 0 1.417847 0.787693h1.417846c0.787692 0 1.496615 0.708923 2.914461 0.708923h15.753846c0.787692 0 2.205538 0 2.914462-0.787693h1.417846c0.787692 0 1.417846 0 1.417846-0.708923 0.787692 0 0.787692 0 1.417846-0.708923 0.787692 0 1.496615-0.708923 2.205539-0.708923h0.708923l2.835692-1.417846h0.787693c0.708923-0.787692 2.126769-0.787692 2.835692-1.417846 0.708923-0.787692 2.126769-1.417846 2.835692-2.126769l367.616-330.83077a43.716923 43.716923 0 0 0 8.664616-61.676307 46.395077 46.395077 0 0 0-63.172923-8.664616z" p-id="5391"></path></svg>