<?xml version="1.0" standalone="no"?><!DOCTYPE svg PUBLIC "-//W3C//DTD SVG 1.1//EN" "http://www.w3.org/Graphics/SVG/1.1/DTD/svg11.dtd"><svg t="1595857350041" class="icon" viewBox="0 0 1024 1024" version="1.1" xmlns="http://www.w3.org/2000/svg" p-id="12488" xmlns:xlink="http://www.w3.org/1999/xlink" width="200" height="200"><defs><style type="text/css"></style></defs><path d="M938.699754 669.633157l-85.166705 0c-1.404999-7.571443-3.183506-14.959713-5.053086-22.346961l151.853523-75.9416c15.639189-7.822153 21.975501-26.828019 14.155395-42.469254-7.820106-15.639189-26.777877-21.913079-42.466184-14.155395l-144.868435 72.417333c-55.295374-119.242801-175.8521-202.355731-315.725778-202.355731-170.335457 0-312.219931 123.045407-342.106612 284.850583L84.152097 669.632133c-43.626613 0-79.124082 35.483142-79.124082 79.125105 0 15.516392 5.687536 30.475082 15.995299 42.065048l110.603027 124.435057 0 23.39892c0 43.641963 35.498492 79.123059 79.125105 79.123059l601.351004 0c43.627636 0 79.122035-35.481096 79.122035-79.123059l0-23.39892L1001.830583 790.82331c10.30674-11.590989 15.996322-26.550703 15.996322-42.065048C1017.826905 705.116299 982.329437 669.633157 938.699754 669.633157zM821.543474 669.633157l-17.786085 0 15.794731-7.912204C820.16815 664.377456 821.003168 666.943908 821.543474 669.633157zM511.426437 416.433434c127.510092 0 237.376339 75.972299 287.458991 184.861288L770.686179 615.388718c-44.788066-98.595552-143.893224-167.304424-259.258719-167.304424-135.531789 0-248.732991 94.733595-277.555433 221.549885l-32.561603 0C230.718197 525.354146 358.586446 416.433434 511.426437 416.433434zM656.261103 669.633157c-24.492834-55.788607-80.113619-94.949512-144.834666-94.949512-64.723094 0-120.340809 39.161928-144.835689 94.949512l-33.983999 0c26.149567-73.622788 96.326882-126.59935 178.819688-126.59935 78.044494 0 145.190777 47.349401 174.352957 114.793466l-23.582091 11.806907L656.261103 669.633157 656.261103 669.633157zM511.426437 637.983319c-27.955702 0-52.869115 12.362562-70.254064 31.649837l-38.744419 0c21.961174-37.646412 62.358233-63.299675 108.999506-63.299675s87.038332 25.653263 108.996436 63.299675L581.681524 669.633157C564.293505 650.345881 539.384186 637.983319 511.426437 637.983319zM511.426437 511.38397c-100.158141 0-184.894034 66.854641-212.216309 158.25021l-32.654724 0c28.217668-109.012809 127.141702-189.899024 244.87001-189.899024 102.769618 0 191.260022 61.662385 230.898811 149.84375l-28.264741 14.123672C679.645696 565.904701 601.833493 511.38397 511.426437 511.38397zM827.925834 891.185089l0 47.475268c0 8.747221-7.076162 15.823384-15.823384 15.823384L210.75247 954.48374c-8.747221 0-15.82543-7.076162-15.82543-15.823384l0-47.475268L68.32769 748.758262c0-8.747221 7.077186-15.82543 15.824407-15.82543l79.125105 0 31.649837 0 31.650861 0 31.649837 0 31.650861 0 31.649837 0 31.650861 0 31.648814 0 31.650861 0 189.900048 0 31.648814 0 31.650861 0 31.651884 0 31.647791 0 31.650861 0 31.651884 0 31.647791 0 31.651884 0 79.122035 0c8.750291 0 15.827477 7.078209 15.827477 15.82543L827.925834 891.185089zM257.485841 375.664915c0.091074 0.186242 0.152473 0.370437 0.245593 0.556679 0 0 0.030699 0 0.062422 0 2.65855 5.069459 7.913227 8.56098 14.031575 8.56098 8.778944 0 15.903202-7.138584 15.903202-15.917528 0-1.359974-0.232291-2.689249-0.556679-3.957125 0.063445-0.215918 0.063445-0.402159-0.016373-0.618077-11.852956-27.909653-0.585331-58.539254 13.261025-91.51939 14.975063-35.638685 31.030737-75.200726 13.351076-115.442242-2.25639-5.810333-7.850805-9.921977-14.433734-9.921977-8.56098 0-15.516392 6.953366-15.516392 15.516392 0 1.88493 0.38681 3.677762 1.004887 5.347798 0.01535 0.062422 0.01535 0.12382 0.046049 0.186242 0.029676 0.091074 0.063445 0.186242 0.10847 0.277316 0.047072 0.124843 0.093121 0.246617 0.140193 0.372483 12.779048 28.774347 0.416486 58.261938-13.538341 91.549066-14.759145 35.111682-31.079856 74.02597-14.635325 113.681132C257.115404 374.800221 257.285273 375.23308 257.485841 375.664915zM642.940726 371.061061c0.092098 0.186242 0.155543 0.370437 0.24764 0.556679 0 0 0.029676 0 0.061398 0 2.656503 5.069459 7.912204 8.56098 14.032598 8.56098 8.776897 0 15.902178-7.139607 15.902178-15.917528 0-1.360997-0.232291-2.688225-0.554632-3.957125 0.061398-0.215918 0.061398-0.402159-0.017396-0.618077-11.852956-27.909653-0.585331-58.540278 13.258978-91.51939 14.97711-35.637662 31.030737-75.199703 13.354146-115.443265-2.258437-5.810333-7.849782-9.921977-14.433734-9.921977-8.562003 0-15.517415 6.955412-15.517415 15.518438 0 1.88493 0.384763 3.676739 1.003863 5.346775 0.014326 0.062422 0.014326 0.12382 0.047072 0.186242 0.029676 0.093121 0.062422 0.186242 0.106424 0.278339 0.048095 0.122797 0.095167 0.246617 0.13917 0.370437 12.783141 28.77537 0.419556 58.262962-13.537318 91.551112-14.758122 35.111682-31.075763 74.024947-14.635325 113.680109C642.570289 370.195344 642.740158 370.627179 642.940726 371.061061zM480.366024 234.476289c0.091074 0.186242 0.152473 0.370437 0.245593 0.556679 0 0 0.029676 0 0.062422 0 2.65855 5.070482 7.912204 8.563026 14.031575 8.563026 8.779967 0 15.903202-7.141654 15.903202-15.918551 0-1.359974-0.232291-2.689249-0.555655-3.957125 0.062422-0.215918 0.062422-0.402159-0.017396-0.618077-11.852956-27.909653-0.585331-58.539254 13.262048-91.51939C538.271852 95.945189 554.328549 56.384172 536.648888 16.140609c-2.257413-5.810333-7.850805-9.921977-14.433734-9.921977-8.562003 0-15.517415 6.955412-15.517415 15.516392 0 1.88493 0.387833 3.677762 1.003863 5.347798 0.017396 0.061398 0.017396 0.124843 0.048095 0.186242 0.029676 0.092098 0.061398 0.186242 0.107447 0.277316 0.045025 0.124843 0.092098 0.246617 0.138146 0.370437 12.781094 28.77537 0.417509 58.260915-13.536294 91.550089-14.761192 35.111682-31.077809 74.024947-14.635325 113.680109C479.99354 233.610572 480.164433 234.043431 480.366024 234.476289z" p-id="12489"></path></svg>