<?xml version="1.0" standalone="no"?><!DOCTYPE svg PUBLIC "-//W3C//DTD SVG 1.1//EN" "http://www.w3.org/Graphics/SVG/1.1/DTD/svg11.dtd"><svg t="1611055222899" class="icon" viewBox="0 0 1024 1024" version="1.1" xmlns="http://www.w3.org/2000/svg" p-id="4855" xmlns:xlink="http://www.w3.org/1999/xlink" width="200" height="200"><defs><style type="text/css"></style></defs><path d="M810.6 183.5c0-65.7-53.7-119.4-119.4-119.4H333c-65.7 0-119.4 53.7-119.4 119.4-203 0-179.1 0-179.1 119.4 0 98.5 80.6 179.1 179.1 179.1 6 0 14.9 0 20.9-3 38.8 116.4 134.3 223.9 247.8 238.8V900h-89.6c-17.9 0-29.9 11.9-29.9 29.9 0 17.9 11.9 29.8 29.9 29.8h238.8c17.9 0 29.9-11.9 29.9-29.8S649.5 900 631.5 900h-89.6V717.9c113.4-14.9 206-122.4 247.8-238.8 6 0 14.9 3 20.9 3 98.5 0 179.1-80.6 179.1-179.1 0-119.5 23.9-119.5-179.1-119.5z m-597 238.8c-65.7 0-119.4-53.7-119.4-119.4s0-59.7 119.4-59.7v179.1z m537.3-59.7c0 131.3-107.5 298.5-238.8 298.5S273.3 493.9 273.3 362.6V183.5c0-29.9 29.9-59.7 59.7-59.7h358.2c29.8 0 59.7 29.9 59.7 59.7v179.1z m59.7 59.7V243.2c119.4 0 119.4-6 119.4 59.7s-53.7 119.4-119.4 119.4z m0 0" p-id="4856"></path></svg>