<?xml version="1.0" standalone="no"?><!DOCTYPE svg PUBLIC "-//W3C//DTD SVG 1.1//EN" "http://www.w3.org/Graphics/SVG/1.1/DTD/svg11.dtd"><svg t="1582384965488" class="icon" viewBox="0 0 1024 1024" version="1.1" xmlns="http://www.w3.org/2000/svg" p-id="4782" xmlns:xlink="http://www.w3.org/1999/xlink" width="128" height="128"><defs><style type="text/css"></style></defs><path d="M553.08144 1004.282508c-19.201662 0-31.122727-0.062979-32.286343-0.068977H112.234954c-16.676495 0-30.243017-13.566522-30.243018-30.242018V44.436333c0-16.675496 13.566522-30.242018 30.243018-30.242018h777.545349c16.676495 0 30.243017 13.567522 30.243017 30.242018v592.066571c0 11.041355-8.951045 19.993401-19.9934 19.993401s-19.993401-8.952045-19.993401-19.993401V54.181116H121.978737v910.045614h398.962312c0.669779 0.002999 68.005553 0.380874 149.164764-0.670779l0.263913-0.000999c10.923394 0 19.845449 8.781102 19.986403 19.734486 0.144952 11.041355-8.691131 20.107363-19.732487 20.250315-47.297388 0.612798-89.939313 0.742755-117.542202 0.742755zM936.93074 1012.726721c-6.310917 0-12.517868-2.979017-16.406585-8.54318l-50.663277-72.506067c-6.323913-9.052012-4.113642-21.515898 4.93737-27.840811 9.051012-6.323913 21.516898-4.112643 27.840811 4.937371l50.663277 72.506067c6.323913 9.052012 4.113642 21.515898-4.937371 27.84081a19.90343 19.90343 0 0 1-11.434225 3.60581z" p-id="4783"></path><path d="M753.077426 276.846619H248.936831c-11.042355 0-19.993401-8.951045-19.9934-19.993401s8.951045-19.993401 19.9934-19.9934h504.141594c11.042355 0 19.993401 8.951045 19.993401 19.9934s-8.952045 19.993401-19.9944 19.993401zM576.564689 748.291006H248.936831c-11.042355 0-19.993401-8.951045-19.9934-19.993401s8.951045-19.993401 19.9934-19.993401h327.627858c11.042355 0 19.993401 8.951045 19.9934 19.993401s-8.951045 19.993401-19.9934 19.993401zM753.077426 512.567813H248.936831c-11.042355 0-19.993401-8.951045-19.9934-19.993401s8.951045-19.993401 19.9934-19.993401h504.141594c11.042355 0 19.993401 8.951045 19.993401 19.993401s-8.952045 19.993401-19.9944 19.993401zM782.334768 979.477696c-96.300213 0-174.645353-78.34614-174.645353-174.645354s78.34514-174.645353 174.645353-174.645353c96.299214 0 174.644354 78.34614 174.644354 174.645353s-78.34514 174.645353-174.644354 174.645354z m0-309.303906c-74.250492 0-134.658552 60.408061-134.658552 134.658552s60.408061 134.658552 134.658552 134.658553 134.657552-60.408061 134.657553-134.658553-60.407061-134.658552-134.657553-134.658552z" p-id="4784"></path><path d="M855.426642 782.645666c-6.904721 0-13.619504-3.579818-17.325281-9.986704a65.073521 65.073521 0 0 0-19.791467-21.213998c-10.63449-7.184629-23.074384-10.982375-35.975126-10.982375-11.042355 0-19.993401-8.951045-19.9934-19.9934s8.951045-19.993401 19.9934-19.993401c20.910098 0 41.090437 6.166964 58.360737 17.835113 13.061689 8.824087 24.135034 20.694169 32.019431 34.327669 5.528175 9.558845 2.263253 21.788808-7.296592 27.316984a19.896433 19.896433 0 0 1-9.991702 2.690112z" p-id="4785"></path></svg>